<svg width="23" height="23" viewBox="0 0 23 23" fill="none" xmlns="http://www.w3.org/2000/svg">
<path d="M11.6243 2.36839C14.6388 2.36839 14.9958 2.37968 16.1867 2.43398C16.9027 2.44275 17.6119 2.57422 18.2834 2.82269C18.7705 3.01051 19.2127 3.29823 19.5818 3.66732C19.9509 4.03641 20.2386 4.47869 20.4265 4.9657C20.6749 5.63727 20.8064 6.34647 20.8152 7.06248C20.8689 8.25334 20.8808 8.61033 20.8808 11.6248C20.8808 14.6394 20.8695 14.9963 20.8152 16.1872C20.8064 16.9032 20.6749 17.6124 20.4265 18.284C20.2386 18.771 19.9509 19.2133 19.5818 19.5824C19.2127 19.9515 18.7705 20.2392 18.2834 20.427C17.6119 20.6755 16.9027 20.8069 16.1867 20.8157C14.9964 20.8695 14.6394 20.8813 11.6243 20.8813C8.60925 20.8813 8.25226 20.87 7.06194 20.8157C6.34594 20.8069 5.63673 20.6755 4.96517 20.427C4.47816 20.2392 4.03587 19.9515 3.66678 19.5824C3.29769 19.2133 3.00997 18.771 2.82216 18.284C2.57368 17.6124 2.44221 16.9032 2.43345 16.1872C2.37968 14.9963 2.36786 14.6394 2.36786 11.6248C2.36786 8.61033 2.37915 8.25334 2.43345 7.06248C2.44221 6.34647 2.57368 5.63727 2.82216 4.9657C3.00997 4.47869 3.29769 4.03641 3.66678 3.66732C4.03587 3.29823 4.47816 3.01051 4.96517 2.82269C5.63673 2.57422 6.34594 2.44275 7.06194 2.43398C8.2528 2.38022 8.60979 2.36839 11.6243 2.36839ZM11.6243 0.333984C8.55979 0.333984 8.17377 0.346888 6.96947 0.401726C6.0324 0.420365 5.10527 0.597791 4.22753 0.926458C3.47457 1.21015 2.79258 1.65472 2.22915 2.22915C1.6542 2.79279 1.20925 3.47517 0.925382 4.22861C0.596716 5.10635 0.41929 6.03347 0.400651 6.97054C0.346888 8.17377 0.333984 8.55979 0.333984 11.6243C0.333984 14.6888 0.346888 15.0748 0.401726 16.2791C0.420365 17.2162 0.597791 18.1433 0.926458 19.0211C1.21001 19.7744 1.65459 20.4568 2.22915 21.0205C2.79289 21.5951 3.47526 22.0397 4.22861 22.3232C5.10635 22.6519 6.03347 22.8293 6.97054 22.848C8.17484 22.9017 8.55925 22.9157 11.6254 22.9157C14.6915 22.9157 15.0759 22.9028 16.2802 22.848C17.2173 22.8293 18.1444 22.6519 19.0222 22.3232C19.7719 22.0326 20.4528 21.5887 21.0212 21.0199C21.5896 20.4511 22.0331 19.77 22.3232 19.02C22.6519 18.1423 22.8293 17.2151 22.848 16.2781C22.9017 15.0748 22.9146 14.6888 22.9146 11.6243C22.9146 8.55979 22.9017 8.17377 22.8469 6.96947C22.8283 6.0324 22.6508 5.10527 22.3222 4.22753C22.0386 3.47419 21.594 2.79182 21.0195 2.22807C20.4557 1.65351 19.7734 1.20893 19.02 0.925382C18.1423 0.596716 17.2151 0.41929 16.2781 0.400651C15.0748 0.346888 14.6888 0.333984 11.6243 0.333984Z" fill="#34A6B1"/>
<path d="M11.627 5.8291C10.4802 5.8291 9.35929 6.16914 8.40584 6.80622C7.45239 7.44329 6.70926 8.34879 6.27044 9.40821C5.83161 10.4676 5.7168 11.6334 5.94051 12.7581C6.16422 13.8827 6.71641 14.9158 7.52726 15.7266C8.3381 16.5375 9.37118 17.0897 10.4958 17.3134C11.6205 17.5371 12.7863 17.4223 13.8457 16.9835C14.9051 16.5446 15.8106 15.8015 16.4477 14.8481C17.0848 13.8946 17.4248 12.7737 17.4248 11.627C17.4248 10.0893 16.814 8.61456 15.7267 7.52725C14.6393 6.43995 13.1646 5.8291 11.627 5.8291ZM11.627 15.3904C10.8826 15.3904 10.155 15.1697 9.5361 14.7561C8.9172 14.3426 8.43483 13.7548 8.14999 13.0672C7.86514 12.3795 7.79061 11.6228 7.93583 10.8927C8.08104 10.1627 8.43947 9.49212 8.9658 8.9658C9.49213 8.43947 10.1627 8.08104 10.8927 7.93582C11.6228 7.79061 12.3795 7.86514 13.0672 8.14998C13.7548 8.43483 14.3426 8.9172 14.7561 9.53609C15.1697 10.155 15.3904 10.8826 15.3904 11.627C15.3904 12.6251 14.9939 13.5823 14.2881 14.2881C13.5823 14.9939 12.6251 15.3904 11.627 15.3904Z" fill="#34A6B1"/>
<path d="M17.6527 6.95284C18.4009 6.95284 19.0075 6.34626 19.0075 5.598C19.0075 4.84975 18.4009 4.24316 17.6527 4.24316C16.9044 4.24316 16.2979 4.84975 16.2979 5.598C16.2979 6.34626 16.9044 6.95284 17.6527 6.95284Z" fill="#34A6B1"/>
</svg>
